<?xml version="1.0" encoding="UTF-8" standalone="no"?><svg xmlns="http://www.w3.org/2000/svg" xmlns:xlink="http://www.w3.org/1999/xlink" contentScriptType="application/ecmascript" contentStyleType="text/css" height="329px" preserveAspectRatio="none" style="width:699px;height:329px;" version="1.1" viewBox="0 0 699 329" width="699px" zoomAndPan="magnify"><defs><filter height="300%" id="f1az7a3icz88pi" width="300%" x="-1" y="-1"><feGaussianBlur result="blurOut" stdDeviation="2.0"/><feColorMatrix in="blurOut" result="blurOut2" type="matrix" values="0 0 0 0 0 0 0 0 0 0 0 0 0 0 0 0 0 0 .4 0"/><feOffset dx="4.0" dy="4.0" in="blurOut2" result="blurOut3"/><feBlend in="SourceGraphic" in2="blurOut3" mode="normal"/></filter></defs><g><ellipse cx="354" cy="20" fill="#000000" filter="url(#f1az7a3icz88pi)" rx="10" ry="10" style="stroke: none; stroke-width: 1.0;"/><rect fill="#FEFECE" filter="url(#f1az7a3icz88pi)" height="36.3887" rx="12.5" ry="12.5" style="stroke: #A80036; stroke-width: 1.5;" width="44" x="332" y="50"/><text fill="#000000" font-family="sans-serif" font-size="12" lengthAdjust="spacingAndGlyphs" textLength="24" x="342" y="73.752">开始</text><polygon fill="#FEFECE" filter="url(#f1az7a3icz88pi)" points="32,106.3887,118,106.3887,130,118.3887,118,130.3887,32,130.3887,20,118.3887,32,106.3887" style="stroke: #A80036; stroke-width: 1.5;"/><text fill="#000000" font-family="sans-serif" font-size="11" lengthAdjust="spacingAndGlyphs" textLength="18" x="79" y="142.9946">yes</text><text fill="#000000" font-family="sans-serif" font-size="11" lengthAdjust="spacingAndGlyphs" textLength="86" x="32" y="123.4832">msg.callback!=null</text><rect fill="#FEFECE" filter="url(#f1az7a3icz88pi)" height="36.3887" rx="12.5" ry="12.5" style="stroke: #A80036; stroke-width: 1.5;" width="106" x="22" y="165.4116"/><text fill="#000000" font-family="sans-serif" font-size="12" lengthAdjust="spacingAndGlyphs" textLength="86" x="32" y="189.1636">handleCallback</text><polygon fill="#FEFECE" filter="url(#f1az7a3icz88pi)" points="183,106.3887,259,106.3887,271,118.3887,259,130.3887,183,130.3887,171,118.3887,183,106.3887" style="stroke: #A80036; stroke-width: 1.5;"/><text fill="#000000" font-family="sans-serif" font-size="11" lengthAdjust="spacingAndGlyphs" textLength="18" x="225" y="142.9946">yes</text><text fill="#000000" font-family="sans-serif" font-size="11" lengthAdjust="spacingAndGlyphs" textLength="76" x="183" y="123.4832">mCallback==null</text><rect fill="#FEFECE" filter="url(#f1az7a3icz88pi)" height="36.3887" rx="12.5" ry="12.5" style="stroke: #A80036; stroke-width: 1.5;" width="142" x="150" y="165.4116"/><text fill="#000000" font-family="sans-serif" font-size="12" lengthAdjust="spacingAndGlyphs" textLength="122" x="160" y="189.1636">handleMessage(msg)</text><polygon fill="#FEFECE" filter="url(#f1az7a3icz88pi)" points="324,106.3887,514,106.3887,526,118.3887,514,130.3887,324,130.3887,312,118.3887,324,106.3887" style="stroke: #A80036; stroke-width: 1.5;"/><text fill="#000000" font-family="sans-serif" font-size="11" lengthAdjust="spacingAndGlyphs" textLength="18" x="423" y="142.9946">yes</text><text fill="#000000" font-family="sans-serif" font-size="11" lengthAdjust="spacingAndGlyphs" textLength="190" x="324" y="123.4832">mCallback.handlerMessage(msg)==true</text><text fill="#000000" font-family="sans-serif" font-size="11" lengthAdjust="spacingAndGlyphs" textLength="12" x="526" y="115.9717">no</text><rect fill="#FEFECE" filter="url(#f1az7a3icz88pi)" height="36.3887" rx="12.5" ry="12.5" style="stroke: #A80036; stroke-width: 1.5;" width="142" x="546" y="160.9001"/><text fill="#000000" font-family="sans-serif" font-size="12" lengthAdjust="spacingAndGlyphs" textLength="122" x="556" y="184.6521">handleMessage(msg)</text><rect fill="#FEFECE" filter="url(#f1az7a3icz88pi)" height="36.3887" rx="12.5" ry="12.5" style="stroke: #A80036; stroke-width: 1.5;" width="44" x="332" y="241.8003"/><text fill="#000000" font-family="sans-serif" font-size="12" lengthAdjust="spacingAndGlyphs" textLength="24" x="342" y="265.5522">结束</text><ellipse cx="354" cy="308.189" fill="#FFFFFF" filter="url(#f1az7a3icz88pi)" rx="10" ry="10" style="stroke: #000000; stroke-width: 1.5;"/><line style="stroke: #000000; stroke-width: 2.5;" x1="347.8128" x2="360.1872" y1="302.0018" y2="314.3761"/><line style="stroke: #000000; stroke-width: 2.5;" x1="360.1872" x2="347.8128" y1="302.0018" y2="314.3761"/><line style="stroke: #A80036; stroke-width: 1.5;" x1="354" x2="354" y1="30" y2="50"/><polygon fill="#A80036" points="350,40,354,50,358,40,354,44" style="stroke: #A80036; stroke-width: 1.0;"/><line style="stroke: #A80036; stroke-width: 1.5;" x1="75" x2="75" y1="130.3887" y2="165.4116"/><polygon fill="#A80036" points="71,155.4116,75,165.4116,79,155.4116,75,159.4116" style="stroke: #A80036; stroke-width: 1.0;"/><line style="stroke: #A80036; stroke-width: 1.5;" x1="75" x2="75" y1="201.8003" y2="221.8003"/><polygon fill="#A80036" points="71,211.8003,75,221.8003,79,211.8003,75,215.8003" style="stroke: #A80036; stroke-width: 1.0;"/><line style="stroke: #A80036; stroke-width: 1.5;" x1="221" x2="221" y1="130.3887" y2="165.4116"/><polygon fill="#A80036" points="217,155.4116,221,165.4116,225,155.4116,221,159.4116" style="stroke: #A80036; stroke-width: 1.0;"/><line style="stroke: #A80036; stroke-width: 1.5;" x1="221" x2="221" y1="201.8003" y2="221.8003"/><polygon fill="#A80036" points="217,211.8003,221,221.8003,225,211.8003,221,215.8003" style="stroke: #A80036; stroke-width: 1.0;"/><line style="stroke: #A80036; stroke-width: 1.5;" x1="419" x2="419" y1="130.3887" y2="221.8003"/><polygon fill="#A80036" points="415,211.8003,419,221.8003,423,211.8003,419,215.8003" style="stroke: #A80036; stroke-width: 1.0;"/><line style="stroke: #A80036; stroke-width: 1.5;" x1="130" x2="171" y1="118.3887" y2="118.3887"/><polygon fill="#A80036" points="161,114.3887,171,118.3887,161,122.3887,165,118.3887" style="stroke: #A80036; stroke-width: 1.0;"/><line style="stroke: #A80036; stroke-width: 1.5;" x1="271" x2="312" y1="118.3887" y2="118.3887"/><polygon fill="#A80036" points="302,114.3887,312,118.3887,302,122.3887,306,118.3887" style="stroke: #A80036; stroke-width: 1.0;"/><line style="stroke: #A80036; stroke-width: 1.5;" x1="354" x2="354" y1="86.3887" y2="91.3887"/><line style="stroke: #A80036; stroke-width: 1.5;" x1="354" x2="75" y1="91.3887" y2="91.3887"/><line style="stroke: #A80036; stroke-width: 1.5;" x1="75" x2="75" y1="91.3887" y2="106.3887"/><polygon fill="#A80036" points="71,96.3887,75,106.3887,79,96.3887,75,100.3887" style="stroke: #A80036; stroke-width: 1.0;"/><line style="stroke: #A80036; stroke-width: 1.5;" x1="526" x2="617" y1="118.3887" y2="118.3887"/><line style="stroke: #A80036; stroke-width: 1.5;" x1="617" x2="617" y1="118.3887" y2="160.9001"/><polygon fill="#A80036" points="613,150.9001,617,160.9001,621,150.9001,617,154.9001" style="stroke: #A80036; stroke-width: 1.0;"/><line style="stroke: #A80036; stroke-width: 1.5;" x1="617" x2="617" y1="197.2888" y2="221.8003"/><polygon fill="#A80036" points="613,211.8003,617,221.8003,621,211.8003,617,215.8003" style="stroke: #A80036; stroke-width: 1.0;"/><line style="stroke: #A80036; stroke-width: 1.5;" x1="75" x2="617" y1="221.8003" y2="221.8003"/><line style="stroke: #A80036; stroke-width: 1.5;" x1="354" x2="354" y1="221.8003" y2="241.8003"/><polygon fill="#A80036" points="350,231.8003,354,241.8003,358,231.8003,354,235.8003" style="stroke: #A80036; stroke-width: 1.0;"/><line style="stroke: #A80036; stroke-width: 1.5;" x1="354" x2="354" y1="278.189" y2="298.189"/><polygon fill="#A80036" points="350,288.189,354,298.189,358,288.189,354,292.189" style="stroke: #A80036; stroke-width: 1.0;"/><!--
@startuml
start
:开始;
if (msg.callback!=null) then (yes)
    :handleCallback;
elseif (mCallback==null) then(yes)
      :handleMessage(msg);
    elseif (mCallback.handlerMessage(msg)==true) then (yes)

    else(no)
        :handleMessage(msg);
endif
:结束;
end
@enduml

PlantUML version 1.2018.01(Mon Jan 29 02:08:22 GMT+08:00 2018)
(GPL source distribution)
Java Runtime: OpenJDK Runtime Environment
JVM: OpenJDK 64-Bit Server VM
Java Version: 1.8.0_152-release-1024-b02
Operating System: Windows 10
OS Version: 10.0
Default Encoding: GBK
Language: zh
Country: CN
--></g></svg>